<svg width="147" height="139" viewBox="0 0 147 139" fill="none" xmlns="http://www.w3.org/2000/svg">
<g clip-path="url(#clip0_187_63)">
<path fill-rule="evenodd" clip-rule="evenodd" d="M48.3235 117.774V89.4319H53.5112V117.774H48.3235ZM89.6066 117.774V89.4319H94.7943V117.774H89.6066ZM124.323 94.4822H115.465V117.774H110.277V94.4822H101.991L99.0519 89.4319H127.466L134.311 102.136L141.155 89.4319H147L136.924 107.995L136.883 117.774H131.697V108.073L124.322 94.4825L124.323 94.4822ZM15.9654 94.4822V117.774H10.7777V94.4822H2.62539L-0.189453 89.4319H33.5882C36.1925 89.4319 38.7469 90.056 40.6701 91.9243C42.5078 93.7091 43.2425 96.0198 43.2425 98.5668C43.2425 100.686 42.7305 102.711 41.36 104.353C40.1356 105.821 38.5053 106.678 36.7009 107.125L44.9433 117.774H38.5278L30.7475 107.505H27.1374V117.774H21.9495V102.714C25.6737 102.714 29.3973 102.77 33.1213 102.77C34.401 102.77 35.8231 102.541 36.8025 101.636C37.674 100.831 38.0158 99.7865 38.0158 98.6067C38.0158 97.4378 37.6803 96.3953 36.805 95.5997C35.8226 94.7068 34.3956 94.4827 33.1213 94.4827C27.4026 94.4827 21.6842 94.4827 15.9656 94.4827L15.9654 94.4822ZM66.6143 98.2123L66.5511 117.774H61.3631V94.482V94.4223L58.4564 89.4316H67.1484L79.7199 109.049L79.7629 89.4316H84.9509V117.774H79.1271L66.6141 98.212L66.6143 98.2123Z" fill="#FEFEFE"/>
<path d="M15.8991 135.759L15.2979 134.059H12.4144L11.8031 135.759H10.2646L12.934 128.546H14.778L17.4474 135.759H15.8988H15.8991ZM12.9138 132.657H14.7884L13.8513 130.04L12.914 132.657H12.9138ZM22.4095 128.545H23.887V132.843C23.887 133.825 23.6154 134.577 23.0719 135.099C22.5286 135.621 21.819 135.882 20.9427 135.882C20.0664 135.882 19.3567 135.621 18.8132 135.099C18.2699 134.577 17.9984 133.825 17.9984 132.843V128.545H19.4756V132.76C19.4756 133.907 19.9648 134.481 20.9429 134.481C21.921 134.481 22.41 133.907 22.41 132.76V128.545H22.4095ZM30.4585 128.545V129.947H28.4004V135.759H26.9434V129.947H24.8954V128.545H30.4583H30.4585ZM32.2059 129.493C32.9158 128.779 33.797 128.422 34.8498 128.422C35.9029 128.422 36.7859 128.779 37.499 129.493C38.2122 130.208 38.5689 131.094 38.5689 132.152C38.5689 133.21 38.2122 134.096 37.499 134.811C36.7859 135.525 35.9029 135.883 34.8498 135.883C33.797 135.883 32.9158 135.525 32.2059 134.811C31.4962 134.096 31.1411 133.21 31.1411 132.152C31.1411 131.094 31.4962 130.208 32.2059 129.493ZM36.4545 130.483C36.0298 130.043 35.4951 129.823 34.8496 129.823C34.2043 129.823 33.6696 130.043 33.2449 130.483C32.8205 130.922 32.608 131.479 32.608 132.152C32.608 132.825 32.8205 133.382 33.2449 133.822C33.6696 134.261 34.2043 134.481 34.8496 134.481C35.4951 134.481 36.0298 134.261 36.4545 133.822C36.8789 133.382 37.0912 132.825 37.0912 132.152C37.0912 131.479 36.8789 130.922 36.4545 130.483ZM46.9641 135.759L45.1199 133.162H44.3152V135.759H42.8582V131.874C43.8262 131.874 44.7941 131.874 45.762 131.874C46.1353 131.874 46.4156 131.79 46.6025 131.622C46.7894 131.453 46.8826 131.218 46.8826 130.916C46.8826 130.613 46.7876 130.376 46.5973 130.205C46.4071 130.033 46.1286 129.947 45.762 129.947C44.7975 129.947 43.8446 129.923 42.8582 129.923V128.545H45.925C46.6858 128.545 47.2818 128.757 47.7132 129.179C48.1446 129.602 48.36 130.174 48.36 130.895C48.36 131.472 48.2209 131.943 47.9424 132.307C47.6639 132.671 47.2699 132.918 46.7603 133.049L48.7574 135.759H46.9641ZM54.5952 129.947H51.2636V131.4H54.3202V132.801H51.2636V134.357H54.5952V135.758H49.8066V128.545H54.5952V129.947V129.947ZM60.3518 128.545H61.8088V135.759H60.1278L57.0306 130.709L57.163 132.739V135.759H55.7061V128.545H57.3769L60.4842 133.595L60.3518 131.565V128.545ZM68.3803 128.545V129.947H66.3222V135.759H64.8652V129.947H62.8172V128.545H68.3801H68.3803ZM73.6988 135.759L73.0976 134.059H70.2141L69.6028 135.759H68.0644L70.7338 128.545H72.5778L75.2472 135.759H73.6986H73.6988ZM70.7135 132.657H72.5881L71.6511 130.04L70.7137 132.657H70.7135ZM77.7641 134.357H80.8208V135.758H76.3072V128.545H77.7641V134.357ZM89.3588 131.874C89.7323 131.997 90.0142 132.219 90.2044 132.538C90.3947 132.858 90.4897 133.237 90.4897 133.677C90.4897 134.33 90.274 134.84 89.8428 135.207C89.4114 135.574 88.8256 135.758 88.0851 135.758H84.937V131.399L87.9119 131.399C88.4892 131.399 88.7779 131.156 88.7779 130.668C88.7779 130.407 88.7051 130.221 88.559 130.111C88.4129 130.002 88.1837 129.946 87.8714 129.946C86.8933 129.946 85.9153 129.946 84.937 129.946V128.545H88.0648C88.7371 128.545 89.2687 128.706 89.6593 129.029C90.0498 129.352 90.2452 129.816 90.2452 130.421C90.2452 131.087 89.9496 131.571 89.3588 131.873V131.874ZM88.0545 134.357C88.4079 134.357 88.6556 134.288 88.7984 134.151C88.9409 134.013 89.0125 133.814 89.0125 133.553C89.0125 133.278 88.9409 133.076 88.7984 132.945C88.6556 132.815 88.4043 132.749 88.0443 132.749H86.3937V134.357H88.0542L88.0545 134.357ZM92.4102 129.493C93.1201 128.779 94.0014 128.421 95.0542 128.421C96.1072 128.421 96.9903 128.779 97.7033 129.493C98.4166 130.208 98.7732 131.094 98.7732 132.152C98.7732 133.21 98.4166 134.096 97.7033 134.81C96.9903 135.525 96.1072 135.882 95.0542 135.882C94.0014 135.882 93.1201 135.525 92.4102 134.81C91.7006 134.096 91.3455 133.21 91.3455 132.152C91.3455 131.094 91.7006 130.208 92.4102 129.493ZM96.6588 130.482C96.2342 130.043 95.6995 129.823 95.054 129.823C94.4087 129.823 93.8739 130.043 93.4493 130.482C93.0249 130.922 92.8124 131.479 92.8124 132.152C92.8124 132.825 93.0249 133.382 93.4493 133.821C93.8739 134.261 94.4087 134.481 95.054 134.481C95.6995 134.481 96.2342 134.261 96.6588 133.821C97.0833 133.382 97.2956 132.825 97.2956 132.152C97.2956 131.479 97.0833 130.922 96.6588 130.482ZM104.417 128.545H105.895V132.842C105.895 133.824 105.623 134.577 105.08 135.099C104.536 135.621 103.827 135.882 102.95 135.882C102.074 135.882 101.365 135.621 100.821 135.099C100.278 134.577 100.006 133.824 100.006 132.842V128.545H101.483V132.76C101.483 133.907 101.973 134.481 102.951 134.481C103.929 134.481 104.418 133.907 104.418 132.76V128.545H104.417ZM112.466 128.545V129.946H110.408V135.758H108.951V129.946H106.903V128.545H112.466H112.466ZM113.526 135.758V128.545H114.983V135.758H113.526ZM123.643 132.152C123.643 133.182 123.304 134.051 122.624 134.759L123.643 136.129L122.533 136.974L121.473 135.563C120.991 135.776 120.475 135.882 119.924 135.882C118.872 135.882 117.99 135.525 117.28 134.81C116.571 134.096 116.216 133.21 116.216 132.152C116.216 131.094 116.571 130.207 117.28 129.493C117.99 128.778 118.872 128.421 119.924 128.421C120.977 128.421 121.861 128.778 122.574 129.493C123.287 130.207 123.643 131.094 123.643 132.152H123.643ZM118.32 130.482C117.895 130.922 117.683 131.478 117.683 132.152C117.683 132.825 117.895 133.381 118.32 133.821C118.744 134.261 119.279 134.481 119.924 134.481C120.57 134.481 121.105 134.261 121.529 133.821C121.954 133.381 122.166 132.825 122.166 132.152C122.166 131.479 121.954 130.922 121.529 130.482C121.105 130.043 120.57 129.823 119.924 129.823C119.279 129.823 118.744 130.043 118.32 130.482ZM129.288 128.545H130.765V132.842C130.765 133.824 130.494 134.576 129.95 135.098C129.407 135.62 128.697 135.882 127.821 135.882C126.945 135.882 126.235 135.621 125.691 135.098C125.148 134.576 124.877 133.824 124.877 132.842V128.545H126.354V132.759C126.354 133.907 126.843 134.48 127.821 134.48C128.799 134.48 129.288 133.907 129.288 132.759V128.545H129.288ZM137.051 129.946H133.72V131.399H136.777V132.8H133.72V134.356H137.051V135.758H132.263V128.545H137.051V129.946V129.946Z" fill="#FEFEFE"/>
</g>
<path fill-rule="evenodd" clip-rule="evenodd" d="M98.7469 0H59.9376L53.1826 11.9947H66.5823L59.0166 25.1324L72.4387 25.123L79.9992 11.9947H91.8475L98.7469 0Z" fill="#00A3A9"/>
<path fill-rule="evenodd" clip-rule="evenodd" d="M64.9264 7.83789H38.3408L36 11.995H62.5351L64.9264 7.83789Z" fill="#00A3A9"/>
<path fill-rule="evenodd" clip-rule="evenodd" d="M36.0928 18.2168L55.4975 52.0766L69.186 51.9726L62.486 40.282L77.563 40.3141L70.8438 28.6085L55.7777 28.5764L49.8537 18.2389L36.0928 18.2168Z" fill="#049393"/>
<path fill-rule="evenodd" clip-rule="evenodd" d="M59.7402 43.8057L73.0331 67.0004L77.7772 66.9646L64.5095 43.8133L59.7402 43.8057Z" fill="#049393"/>
<path fill-rule="evenodd" clip-rule="evenodd" d="M83.5344 63.8338L102.939 29.9743L96.0055 18.0833L89.3058 29.7741L81.7948 16.6044L75.0918 28.3191L82.5972 41.4797L76.6729 51.817L83.5344 63.8338Z" fill="#33B7BC"/>
<path fill-rule="evenodd" clip-rule="evenodd" d="M93.7071 30.4075L107 7.21302L104.597 3.0918L91.3291 26.2428L93.7071 30.4075Z" fill="#33B7BC"/>
<defs>
<clipPath id="clip0_187_63">
<rect width="147" height="60" fill="white" transform="translate(0 79)"/>
</clipPath>
</defs>
</svg>
